<svg width="410" height="739" viewBox="0 0 410 739" fill="none" xmlns="http://www.w3.org/2000/svg">
<path d="M48.502 1.05949C21.7157 1.05878 0.000533535 19.1268 2.59672e-08 41.4153V698.179C-0.000867086 720.469 21.7147 738.536 48.502 738.535H360.787C387.574 738.536 409.29 720.469 409.289 698.179V41.4153C409.288 19.1268 387.573 1.05878 360.787 1.05949H298.589C292.921 1.05949 289.99 1.54713 289.99 9.02843C289.99 16.5097 284.418 29.1153 264.482 29.1153H144.807C124.87 29.1153 119.299 16.5097 119.299 9.02843C119.299 1.54713 116.368 1.05949 110.699 1.05949H48.502Z" fill="#5218FF"/>
<path d="M108.317 373.989H104.154L105.902 372.877L104.257 381.259L103.846 380.361L108.78 381.473L108.215 384.595H92.8989L93.4643 381.473L98.0384 380.361L97.0105 381.259L101.482 357.953L102.253 358.936L97.987 357.824L98.6037 354.702L109.499 354.489H113.714C117.414 354.489 120.07 355.173 121.68 356.541C123.325 357.91 124.147 359.806 124.147 362.229C124.147 364.538 123.496 366.577 122.194 368.344C120.926 370.112 119.11 371.495 116.746 372.493C114.382 373.49 111.572 373.989 108.317 373.989ZM111.607 358.936H107.701L108.728 357.867L106.313 370.568L105.388 369.499H108.523C110.373 369.499 111.898 369.2 113.097 368.601C114.296 368.002 115.187 367.19 115.77 366.163C116.352 365.137 116.643 364.025 116.643 362.828C116.643 361.602 116.266 360.647 115.513 359.962C114.793 359.278 113.491 358.936 111.607 358.936Z" fill="white"/>
<path d="M124.652 384.809L130.768 352.778L133.286 356.456L126.759 354.873L127.324 351.623L138.117 351.281L132.001 383.312L129.38 379.549L136.113 381.345L135.496 384.552L124.652 384.809Z" fill="white"/>
<path d="M147.162 385.108C145.792 385.108 144.524 384.809 143.359 384.21C142.228 383.611 141.32 382.685 140.635 381.43C139.95 380.176 139.607 378.537 139.607 376.512C139.607 374.403 140.001 372.421 140.789 370.568C141.577 368.715 142.691 367.09 144.13 365.693C145.569 364.296 147.231 363.198 149.115 362.4C151.034 361.602 153.107 361.203 155.334 361.203C156.807 361.203 158.315 361.402 159.857 361.801C161.398 362.2 162.94 362.87 164.482 363.811L161.296 363.255L162.683 361.759H166.486L162.375 383.355L159.959 379.549L166.486 381.345L165.87 384.552L155.848 384.809L157.39 377.368L159.497 374.203C158.914 376.598 157.938 378.608 156.567 380.233C155.231 381.858 153.723 383.084 152.045 383.911C150.366 384.709 148.738 385.108 147.162 385.108ZM150.04 380.319C150.76 380.319 151.496 380.133 152.25 379.763C153.038 379.363 153.775 378.779 154.46 378.009C155.18 377.211 155.814 376.256 156.362 375.144C156.91 374.004 157.338 372.692 157.647 371.21L158.777 365.265L159.959 367.232C159.103 366.691 158.28 366.306 157.492 366.078C156.704 365.821 155.933 365.693 155.18 365.693C153.946 365.693 152.816 365.978 151.788 366.548C150.794 367.09 149.92 367.845 149.166 368.815C148.413 369.756 147.83 370.839 147.419 372.065C147.042 373.262 146.854 374.517 146.854 375.828C146.854 377.368 147.145 378.508 147.727 379.249C148.31 379.962 149.081 380.319 150.04 380.319Z" fill="white"/>
<path d="M186.573 383.569C185.168 384.082 183.797 384.467 182.461 384.723C181.159 384.98 179.943 385.108 178.812 385.108C176.825 385.108 175.197 384.666 173.929 383.783C172.662 382.899 172.028 381.487 172.028 379.549C172.028 379.264 172.045 378.993 172.079 378.736C172.114 378.451 172.148 378.138 172.182 377.795L174.598 365.009L175.317 365.778H170.537L171.206 362.528L176.396 361.502L175.06 362.571L176.242 356.712L183.489 355.686L182.153 362.571L181.639 361.759H189.194L188.371 365.778H180.765L181.69 365.009L179.326 377.453C179.292 377.567 179.257 377.724 179.223 377.924C179.223 378.095 179.223 378.28 179.223 378.48C179.223 379.249 179.412 379.805 179.788 380.147C180.165 380.461 180.714 380.618 181.433 380.618C181.913 380.618 182.461 380.547 183.078 380.404C183.729 380.233 184.397 380.019 185.082 379.763L186.573 383.569Z" fill="white"/>
<path d="M186.194 394.944C185.44 394.944 184.737 394.901 184.086 394.816C183.435 394.759 182.87 394.702 182.39 394.645L183.521 390.497C183.795 390.497 184.103 390.511 184.446 390.539C184.754 390.596 185.08 390.625 185.423 390.625C186.245 390.625 186.982 390.525 187.633 390.326C188.249 390.126 188.763 389.827 189.174 389.427C189.62 389.057 189.98 388.601 190.254 388.059C190.528 387.517 190.733 386.89 190.87 386.177L194.879 365.265L195.393 365.992H190.768L191.384 362.742L196.318 361.801L195.342 362.828L195.856 359.92C196.472 356.841 197.86 354.588 200.019 353.163C202.212 351.709 204.816 350.982 207.831 350.982C208.756 350.982 209.715 351.053 210.709 351.196C211.702 351.31 212.696 351.524 213.69 351.837L211.994 355.9C211.445 355.7 210.863 355.558 210.246 355.472C209.63 355.387 209.047 355.344 208.499 355.344C207.163 355.344 205.981 355.672 204.953 356.327C203.925 356.955 203.274 358.024 203 359.535L202.383 362.785L201.715 361.93H209.218L208.396 365.992H201.149L201.92 365.265L198.22 384.766C197.843 386.648 197.261 388.23 196.472 389.513C195.719 390.824 194.794 391.879 193.697 392.678C192.635 393.476 191.453 394.046 190.151 394.388C188.883 394.759 187.564 394.944 186.194 394.944Z" fill="white"/>
<path d="M223.941 361.245C225.997 361.245 227.813 361.559 229.389 362.186C230.965 362.785 232.199 363.783 233.09 365.18C233.98 366.548 234.426 368.359 234.426 370.611C234.426 372.407 234.117 374.175 233.501 375.914C232.884 377.624 231.942 379.178 230.674 380.575C229.406 381.944 227.796 383.041 225.843 383.868C223.924 384.695 221.646 385.108 219.007 385.108C216.917 385.108 215.084 384.795 213.508 384.167C211.932 383.54 210.699 382.542 209.808 381.174C208.951 379.805 208.523 378.009 208.523 375.785C208.523 373.989 208.814 372.236 209.397 370.525C210.013 368.786 210.956 367.218 212.223 365.821C213.491 364.424 215.084 363.312 217.003 362.486C218.956 361.659 221.269 361.245 223.941 361.245ZM222.965 365.565C221.629 365.565 220.498 365.921 219.573 366.634C218.648 367.318 217.894 368.202 217.311 369.285C216.763 370.34 216.352 371.452 216.078 372.621C215.838 373.79 215.718 374.845 215.718 375.785C215.718 377.325 216.044 378.551 216.695 379.463C217.38 380.347 218.459 380.789 219.933 380.789C221.269 380.789 222.4 380.447 223.325 379.763C224.25 379.05 225.004 378.152 225.586 377.068C226.168 375.985 226.58 374.859 226.819 373.69C227.094 372.521 227.231 371.466 227.231 370.525C227.231 368.986 226.888 367.774 226.203 366.89C225.552 366.007 224.472 365.565 222.965 365.565Z" fill="white"/>
<path d="M238.052 384.595L242.163 363.084L244.682 366.805L238.154 365.009L238.771 361.887L249.101 361.588L247.2 368.858L244.99 372.108C245.607 369.713 246.583 367.717 247.919 366.121C249.29 364.496 250.832 363.284 252.545 362.486C254.292 361.659 255.988 361.245 257.633 361.245C258.558 361.245 259.363 361.359 260.049 361.588L258.404 369.242H254.138L254.087 365.308L254.909 365.864C254.018 365.778 253.145 365.95 252.288 366.377C251.466 366.776 250.695 367.389 249.975 368.216C249.29 369.014 248.673 369.984 248.125 371.124C247.611 372.236 247.234 373.49 246.994 374.887L245.144 384.595H238.052Z" fill="white"/>
<path d="M291.573 384.809L294.297 370.483C294.503 369.57 294.571 368.772 294.503 368.088C294.434 367.404 294.211 366.876 293.835 366.505C293.492 366.106 292.978 365.907 292.293 365.907C291.642 365.907 290.956 366.092 290.237 366.463C289.517 366.833 288.815 367.389 288.13 368.131C287.479 368.872 286.879 369.813 286.331 370.953C285.783 372.065 285.372 373.376 285.097 374.887L283.299 384.595H276.206L278.93 370.483C279.101 369.57 279.153 368.772 279.084 368.088C279.016 367.404 278.81 366.876 278.468 366.505C278.125 366.106 277.611 365.907 276.926 365.907C276.275 365.907 275.589 366.092 274.87 366.463C274.15 366.833 273.448 367.389 272.763 368.131C272.112 368.872 271.512 369.813 270.964 370.953C270.416 372.065 270.005 373.376 269.73 374.887L267.88 384.595H260.788L264.54 365.051L267.418 366.805L260.891 365.009L261.507 361.887L271.838 361.588L269.936 368.858L267.777 372.108C268.497 369.542 269.542 367.461 270.912 365.864C272.317 364.267 273.842 363.099 275.487 362.357C277.131 361.616 278.69 361.245 280.164 361.245C281.603 361.245 282.802 361.545 283.761 362.143C284.755 362.742 285.457 363.597 285.868 364.709C286.314 365.821 286.399 367.133 286.125 368.644L285.92 369.927L283.247 372.108C283.967 369.542 285.012 367.461 286.382 365.864C287.753 364.267 289.26 363.099 290.905 362.357C292.55 361.616 294.109 361.245 295.582 361.245C297.021 361.245 298.237 361.573 299.231 362.229C300.259 362.856 300.996 363.769 301.441 364.966C301.886 366.135 301.938 367.532 301.595 369.157L299.282 381.43L296.199 379.549L302.983 381.345L302.417 384.552L291.573 384.809Z" fill="white"/>
<path d="M96.4351 398.275C96.4351 398.737 96.5812 399.114 96.8735 399.405C97.1657 399.697 97.5529 399.94 98.0351 400.135C98.5319 400.317 99.0725 400.481 99.6569 400.627C100.241 400.773 100.826 400.937 101.41 401.12C101.995 401.29 102.528 401.509 103.01 401.776C103.492 402.032 103.88 402.372 104.172 402.797C104.479 403.211 104.632 403.734 104.632 404.366C104.632 405.217 104.369 405.916 103.843 406.463C103.332 407.01 102.645 407.418 101.783 407.685C100.921 407.94 99.9784 408.068 98.9556 408.068C98.225 408.068 97.4798 408.007 96.7201 407.886C95.9603 407.752 95.2151 407.557 94.4845 407.302L94.616 404.311H95.69L96.0625 406.645L95.8434 406.335C96.3548 406.53 96.8881 406.676 97.4433 406.773C97.9986 406.87 98.5392 406.919 99.0652 406.919C99.7519 406.919 100.38 406.834 100.95 406.664C101.52 406.481 101.98 406.22 102.331 405.88C102.682 405.527 102.857 405.089 102.857 404.566C102.857 404.08 102.703 403.691 102.397 403.399C102.104 403.095 101.717 402.846 101.235 402.652C100.753 402.457 100.219 402.287 99.635 402.141C99.0506 401.995 98.4661 401.843 97.8817 401.685C97.2972 401.515 96.7639 401.302 96.2817 401.047C95.7995 400.791 95.405 400.463 95.0982 400.062C94.806 399.649 94.6599 399.126 94.6599 398.494C94.6599 397.715 94.8863 397.071 95.3393 396.56C95.8068 396.038 96.4351 395.649 97.2241 395.393C98.0278 395.138 98.9191 395.01 99.898 395.01C100.585 395.01 101.301 395.071 102.046 395.193C102.791 395.314 103.522 395.503 104.238 395.758L104.062 398.621H102.966L102.638 396.433L102.901 396.652C102.462 396.494 101.987 396.372 101.476 396.287C100.965 396.202 100.453 396.159 99.9419 396.159C99.3428 396.159 98.773 396.232 98.2323 396.378C97.6917 396.512 97.2534 396.737 96.9173 397.053C96.5959 397.357 96.4351 397.764 96.4351 398.275Z" fill="#8D90CF"/>
<path d="M143.27 404.913H144.366V407.904H133.298V407.12L135.468 406.737L135.183 407.065V396.05L135.468 396.378L133.298 396.05V395.266L136.958 395.174H144.103V398.056H143.007L142.613 396.05L142.985 396.287H136.651L136.98 396.013V401.12L136.651 400.846H142.503V401.94H136.651L136.98 401.63V407.065L136.651 406.791H143.27L142.876 407.065L143.27 404.913Z" fill="#8D90CF"/>
<path d="M173.32 407.904V407.12L175.49 406.737L175.205 407.065V396.05L175.578 396.396L173.32 396.05V395.266L177.068 395.174H179.633C181.284 395.174 182.533 395.46 183.38 396.032C184.228 396.603 184.652 397.43 184.652 398.512C184.652 399.509 184.272 400.323 183.512 400.956C182.767 401.588 181.627 401.971 180.093 402.104L180.071 401.922C180.641 401.971 181.101 402.08 181.452 402.25C181.817 402.408 182.124 402.627 182.372 402.907C182.621 403.174 182.862 403.509 183.096 403.91L184.937 407.01L184.389 406.7L186.23 407.12V407.904H183.534L181.518 404.311C181.24 403.788 180.97 403.387 180.707 403.107C180.458 402.816 180.144 402.609 179.764 402.487C179.399 402.366 178.873 402.305 178.186 402.305L176.674 402.323L177.003 402.068V407.065L176.718 406.737L179.26 407.12V407.904H173.32ZM177.003 401.63L176.674 401.229H178.756C180.056 401.229 181.057 401.01 181.759 400.573C182.46 400.123 182.811 399.466 182.811 398.603C182.811 397.849 182.526 397.278 181.956 396.889C181.386 396.488 180.539 396.287 179.413 396.287H176.674L177.003 396.013V401.63Z" fill="#8D90CF"/>
<path d="M218.458 407.922L213.68 396.086L214.162 396.378L212.036 396.05V395.266L217.822 395.174V395.959L215.434 396.342L215.653 395.959L219.685 406.591H219.401L223.718 396.05L223.894 396.36L221.548 396.05V395.266L227.028 395.174V395.959L224.902 396.342L225.362 396.05L220.343 407.922H218.458Z" fill="#8D90CF"/>
<path d="M264.023 404.913H265.119V407.904H254.051V407.12L256.221 406.737L255.936 407.065V396.05L256.221 396.378L254.051 396.05V395.266L257.711 395.174H264.856V398.056H263.76L263.366 396.05L263.738 396.287H257.404L257.733 396.013V401.12L257.404 400.846H263.256V401.94H257.404L257.733 401.63V407.065L257.404 406.791H264.023L263.629 407.065L264.023 404.913Z" fill="#8D90CF"/>
<path d="M294.073 407.904V407.12L296.243 406.737L295.958 407.065V396.05L296.331 396.396L294.073 396.05V395.266L297.821 395.174H300.386C302.037 395.174 303.286 395.46 304.133 396.032C304.981 396.603 305.405 397.43 305.405 398.512C305.405 399.509 305.025 400.323 304.265 400.956C303.52 401.588 302.38 401.971 300.846 402.104L300.824 401.922C301.394 401.971 301.854 402.08 302.205 402.25C302.57 402.408 302.877 402.627 303.125 402.907C303.374 403.174 303.615 403.509 303.848 403.91L305.69 407.01L305.142 406.7L306.983 407.12V407.904H304.287L302.27 404.311C301.993 403.788 301.723 403.387 301.46 403.107C301.211 402.816 300.897 402.609 300.517 402.487C300.152 402.366 299.626 402.305 298.939 402.305L297.427 402.323L297.756 402.068V407.065L297.471 406.737L300.013 407.12V407.904H294.073ZM297.756 401.63L297.427 401.229H299.509C300.809 401.229 301.81 401.01 302.512 400.573C303.213 400.123 303.564 399.466 303.564 398.603C303.564 397.849 303.279 397.278 302.709 396.889C302.139 396.488 301.291 396.287 300.166 396.287H297.427L297.756 396.013V401.63Z" fill="#8D90CF"/>
</svg>
