<svg width="410" height="812" viewBox="0 0 410 812" fill="none" xmlns="http://www.w3.org/2000/svg">
<path d="M48.502 1.16488C21.7157 1.1641 0.000533535 21.0294 2.59672e-08 45.535V767.63C-0.000867086 792.136 21.7147 812.001 48.502 812H360.787C387.574 812.001 409.29 792.136 409.289 767.63V45.535C409.288 21.0294 387.573 1.1641 360.787 1.16488H298.589C292.921 1.16488 289.99 1.70103 289.99 9.92652C289.99 18.152 284.418 32.0115 264.482 32.0115H144.807C124.87 32.0115 119.299 18.152 119.299 9.92652C119.299 1.70103 116.368 1.16488 110.699 1.16488H48.502Z" fill="#5218FF"/>
<path d="M108.317 411.191H104.154L105.902 409.969L104.257 419.185L103.846 418.197L108.78 419.42L108.215 422.852H92.8989L93.4643 419.42L98.0384 418.197L97.0105 419.185L101.482 393.559L102.253 394.641L97.987 393.418L98.6037 389.986L109.499 389.751H113.714C117.414 389.751 120.07 390.503 121.68 392.008C123.325 393.512 124.147 395.597 124.147 398.261C124.147 400.8 123.496 403.042 122.194 404.985C120.926 406.928 119.11 408.449 116.746 409.546C114.382 410.643 111.572 411.191 108.317 411.191ZM111.607 394.641H107.701L108.728 393.465L106.313 407.43L105.388 406.254H108.523C110.373 406.254 111.898 405.925 113.097 405.267C114.296 404.609 115.187 403.715 115.77 402.587C116.352 401.459 116.643 400.236 116.643 398.92C116.643 397.572 116.266 396.522 115.513 395.769C114.793 395.017 113.491 394.641 111.607 394.641Z" fill="white"/>
<path d="M124.652 423.087L130.768 387.87L133.286 391.914L126.759 390.174L127.324 386.601L138.117 386.224L132.001 421.442L129.38 417.304L136.113 419.279L135.496 422.805L124.652 423.087Z" fill="white"/>
<path d="M147.162 423.416C145.792 423.416 144.524 423.087 143.359 422.429C142.228 421.771 141.32 420.752 140.635 419.373C139.95 417.994 139.607 416.191 139.607 413.966C139.607 411.646 140.001 409.467 140.789 407.43C141.577 405.392 142.691 403.606 144.13 402.07C145.569 400.534 147.231 399.327 149.115 398.449C151.034 397.572 153.107 397.133 155.334 397.133C156.807 397.133 158.315 397.352 159.857 397.791C161.398 398.23 162.94 398.967 164.482 400.001L161.296 399.39L162.683 397.744H166.486L162.375 421.489L159.959 417.304L166.486 419.279L165.87 422.805L155.848 423.087L157.39 414.906L159.497 411.427C158.914 414.06 157.938 416.269 156.567 418.056C155.231 419.843 153.723 421.191 152.045 422.1C150.366 422.978 148.738 423.416 147.162 423.416ZM150.04 418.15C150.76 418.15 151.496 417.946 152.25 417.539C153.038 417.1 153.775 416.458 154.46 415.611C155.18 414.734 155.814 413.683 156.362 412.461C156.91 411.207 157.338 409.765 157.647 408.135L158.777 401.6L159.959 403.762C159.103 403.167 158.28 402.744 157.492 402.493C156.704 402.211 155.933 402.07 155.18 402.07C153.946 402.07 152.816 402.383 151.788 403.01C150.794 403.606 149.92 404.436 149.166 405.502C148.413 406.537 147.83 407.728 147.419 409.076C147.042 410.392 146.854 411.771 146.854 413.213C146.854 414.906 147.145 416.16 147.727 416.975C148.31 417.758 149.081 418.15 150.04 418.15Z" fill="white"/>
<path d="M186.573 421.724C185.168 422.288 183.797 422.711 182.461 422.993C181.159 423.275 179.943 423.416 178.812 423.416C176.825 423.416 175.197 422.931 173.929 421.959C172.662 420.987 172.028 419.435 172.028 417.304C172.028 416.99 172.045 416.693 172.079 416.411C172.114 416.097 172.148 415.752 172.182 415.376L174.598 401.318L175.317 402.164H170.537L171.206 398.59L176.396 397.462L175.06 398.637L176.242 392.196L183.489 391.067L182.153 398.637L181.639 397.744H189.194L188.371 402.164H180.765L181.69 401.318L179.326 415C179.292 415.125 179.257 415.298 179.223 415.517C179.223 415.705 179.223 415.909 179.223 416.128C179.223 416.975 179.412 417.586 179.788 417.962C180.165 418.307 180.714 418.479 181.433 418.479C181.913 418.479 182.461 418.401 183.078 418.244C183.729 418.056 184.397 417.821 185.082 417.539L186.573 421.724Z" fill="white"/>
<path d="M186.194 434.231C185.44 434.231 184.737 434.184 184.086 434.09C183.435 434.027 182.87 433.964 182.39 433.902L183.521 429.341C183.795 429.341 184.103 429.356 184.446 429.388C184.754 429.45 185.08 429.482 185.423 429.482C186.245 429.482 186.982 429.372 187.633 429.153C188.249 428.933 188.763 428.604 189.174 428.165C189.62 427.758 189.98 427.256 190.254 426.661C190.528 426.065 190.733 425.376 190.87 424.592L194.879 401.6L195.393 402.399H190.768L191.384 398.826L196.318 397.791L195.342 398.92L195.856 395.722C196.472 392.337 197.86 389.861 200.019 388.293C202.212 386.695 204.816 385.895 207.831 385.895C208.756 385.895 209.715 385.974 210.709 386.13C211.702 386.256 212.696 386.491 213.69 386.836L211.994 391.302C211.445 391.083 210.863 390.926 210.246 390.832C209.63 390.738 209.047 390.691 208.499 390.691C207.163 390.691 205.981 391.052 204.953 391.773C203.925 392.462 203.274 393.638 203 395.299L202.383 398.873L201.715 397.932H209.218L208.396 402.399H201.149L201.92 401.6L198.22 423.04C197.843 425.109 197.261 426.849 196.472 428.259C195.719 429.701 194.794 430.861 193.697 431.739C192.635 432.616 191.453 433.243 190.151 433.619C188.883 434.027 187.564 434.231 186.194 434.231Z" fill="white"/>
<path d="M223.941 397.18C225.997 397.18 227.813 397.525 229.389 398.214C230.965 398.873 232.199 399.97 233.09 401.506C233.98 403.01 234.426 405.001 234.426 407.477C234.426 409.452 234.117 411.395 233.501 413.307C232.884 415.188 231.942 416.896 230.674 418.432C229.406 419.937 227.796 421.144 225.843 422.053C223.924 422.962 221.646 423.416 219.007 423.416C216.917 423.416 215.084 423.072 213.508 422.382C211.932 421.692 210.699 420.595 209.808 419.091C208.951 417.586 208.523 415.611 208.523 413.166C208.523 411.191 208.814 409.264 209.397 407.383C210.013 405.471 210.956 403.747 212.223 402.211C213.491 400.675 215.084 399.452 217.003 398.543C218.956 397.634 221.269 397.18 223.941 397.18ZM222.965 401.929C221.629 401.929 220.498 402.321 219.573 403.104C218.648 403.857 217.894 404.828 217.311 406.019C216.763 407.179 216.352 408.402 216.078 409.687C215.838 410.972 215.718 412.132 215.718 413.166C215.718 414.859 216.044 416.207 216.695 417.21C217.38 418.182 218.459 418.667 219.933 418.667C221.269 418.667 222.4 418.291 223.325 417.539C224.25 416.755 225.004 415.768 225.586 414.577C226.168 413.386 226.58 412.148 226.819 410.862C227.094 409.577 227.231 408.417 227.231 407.383C227.231 405.69 226.888 404.358 226.203 403.386C225.552 402.415 224.472 401.929 222.965 401.929Z" fill="white"/>
<path d="M238.052 422.852L242.163 399.202L244.682 403.292L238.154 401.318L238.771 397.885L249.101 397.556L247.2 405.549L244.99 409.123C245.607 406.49 246.583 404.295 247.919 402.54C249.29 400.753 250.832 399.421 252.545 398.543C254.292 397.634 255.988 397.18 257.633 397.18C258.558 397.18 259.363 397.305 260.049 397.556L258.404 405.972H254.138L254.087 401.647L254.909 402.258C254.018 402.164 253.145 402.352 252.288 402.822C251.466 403.261 250.695 403.935 249.975 404.844C249.29 405.722 248.673 406.787 248.125 408.041C247.611 409.264 247.234 410.643 246.994 412.179L245.144 422.852H238.052Z" fill="white"/>
<path d="M291.573 423.087L294.297 407.336C294.503 406.333 294.571 405.455 294.503 404.703C294.434 403.951 294.211 403.371 293.835 402.963C293.492 402.524 292.978 402.305 292.293 402.305C291.642 402.305 290.956 402.509 290.237 402.916C289.517 403.324 288.815 403.935 288.13 404.75C287.479 405.565 286.879 406.599 286.331 407.853C285.783 409.076 285.372 410.518 285.097 412.179L283.299 422.852H276.206L278.93 407.336C279.101 406.333 279.153 405.455 279.084 404.703C279.016 403.951 278.81 403.371 278.467 402.963C278.125 402.524 277.611 402.305 276.926 402.305C276.275 402.305 275.589 402.509 274.87 402.916C274.15 403.324 273.448 403.935 272.763 404.75C272.112 405.565 271.512 406.599 270.964 407.853C270.416 409.076 270.005 410.518 269.73 412.179L267.88 422.852H260.788L264.54 401.365L267.418 403.292L260.891 401.318L261.507 397.885L271.838 397.556L269.936 405.549L267.777 409.123C268.497 406.301 269.542 404.013 270.912 402.258C272.317 400.503 273.842 399.217 275.487 398.402C277.131 397.587 278.69 397.18 280.164 397.18C281.603 397.18 282.802 397.509 283.761 398.167C284.755 398.826 285.457 399.766 285.868 400.988C286.314 402.211 286.399 403.653 286.125 405.314L285.92 406.725L283.247 409.123C283.967 406.301 285.012 404.013 286.382 402.258C287.753 400.503 289.26 399.217 290.905 398.402C292.55 397.587 294.109 397.18 295.582 397.18C297.021 397.18 298.237 397.54 299.231 398.261C300.259 398.951 300.996 399.954 301.441 401.27C301.886 402.556 301.938 404.092 301.595 405.878L299.282 419.373L296.199 417.304L302.983 419.279L302.417 422.805L291.573 423.087Z" fill="white"/>
<path d="M96.4351 437.893C96.4351 438.401 96.5812 438.815 96.8735 439.136C97.1657 439.457 97.5529 439.724 98.0351 439.938C98.5319 440.138 99.0725 440.319 99.6569 440.479C100.241 440.64 100.826 440.82 101.41 441.021C101.995 441.208 102.528 441.448 103.01 441.742C103.492 442.023 103.88 442.397 104.172 442.865C104.479 443.32 104.632 443.895 104.632 444.59C104.632 445.525 104.369 446.294 103.843 446.896C103.332 447.497 102.645 447.945 101.783 448.239C100.921 448.52 99.9784 448.66 98.9556 448.66C98.225 448.66 97.4798 448.593 96.7201 448.46C95.9603 448.312 95.2151 448.099 94.4845 447.818L94.616 444.529H95.6899L96.0625 447.096L95.8434 446.755C96.3548 446.969 96.8881 447.129 97.4433 447.236C97.9986 447.343 98.5392 447.397 99.0652 447.397C99.7519 447.397 100.38 447.303 100.95 447.116C101.52 446.916 101.98 446.628 102.331 446.254C102.682 445.866 102.857 445.385 102.857 444.81C102.857 444.276 102.703 443.848 102.397 443.527C102.104 443.193 101.717 442.919 101.235 442.705C100.753 442.491 100.219 442.304 99.635 442.143C99.0506 441.983 98.4661 441.816 97.8817 441.642C97.2972 441.455 96.7639 441.221 96.2817 440.94C95.7995 440.66 95.405 440.299 95.0982 439.858C94.806 439.403 94.6599 438.828 94.6599 438.133C94.6599 437.278 94.8863 436.569 95.3393 436.008C95.8068 435.433 96.4351 435.005 97.2241 434.725C98.0278 434.444 98.9191 434.303 99.898 434.303C100.585 434.303 101.301 434.37 102.046 434.504C102.791 434.638 103.522 434.845 104.238 435.126L104.062 438.274H102.966L102.638 435.867L102.901 436.108C102.462 435.934 101.987 435.801 101.476 435.707C100.965 435.613 100.453 435.567 99.9419 435.567C99.3428 435.567 98.773 435.647 98.2323 435.807C97.6917 435.954 97.2534 436.202 96.9173 436.549C96.5959 436.883 96.4351 437.331 96.4351 437.893Z" fill="#8D90CF"/>
<path d="M143.27 445.191H144.366V448.48H133.298V447.617L135.468 447.196L135.183 447.557V435.446L135.468 435.807L133.298 435.446V434.584L136.958 434.484H144.103V437.652H143.007L142.613 435.446L142.985 435.707H136.651L136.98 435.406V441.021L136.651 440.72H142.503V441.923H136.651L136.98 441.582V447.557L136.651 447.256H143.27L142.876 447.557L143.27 445.191Z" fill="#8D90CF"/>
<path d="M173.32 448.48V447.617L175.49 447.196L175.205 447.557V435.446L175.578 435.827L173.32 435.446V434.584L177.068 434.484H179.633C181.284 434.484 182.533 434.798 183.38 435.426C184.228 436.055 184.652 436.964 184.652 438.153C184.652 439.249 184.272 440.145 183.512 440.84C182.767 441.535 181.627 441.956 180.093 442.103L180.071 441.903C180.641 441.956 181.101 442.077 181.452 442.264C181.817 442.438 182.124 442.678 182.372 442.986C182.621 443.28 182.862 443.647 183.096 444.088L184.937 447.497L184.389 447.156L186.23 447.617V448.48H183.534L181.518 444.529C181.24 443.955 180.97 443.514 180.707 443.206C180.458 442.885 180.144 442.658 179.764 442.524C179.399 442.391 178.873 442.324 178.186 442.324L176.674 442.344L177.003 442.063V447.557L176.718 447.196L179.26 447.617V448.48H173.32ZM177.003 441.582L176.674 441.141H178.756C180.056 441.141 181.057 440.9 181.759 440.419C182.46 439.924 182.811 439.203 182.811 438.254C182.811 437.425 182.526 436.796 181.956 436.369C181.386 435.928 180.539 435.707 179.413 435.707H176.674L177.003 435.406V441.582Z" fill="#8D90CF"/>
<path d="M218.458 448.5L213.68 435.486L214.162 435.807L212.036 435.446V434.584L217.822 434.484V435.346L215.434 435.767L215.653 435.346L219.685 447.036H219.401L223.718 435.446L223.894 435.787L221.548 435.446V434.584L227.028 434.484V435.346L224.902 435.767L225.362 435.446L220.343 448.5H218.458Z" fill="#8D90CF"/>
<path d="M264.023 445.191H265.119V448.48H254.051V447.617L256.221 447.196L255.936 447.557V435.446L256.221 435.807L254.051 435.446V434.584L257.711 434.484H264.856V437.652H263.76L263.366 435.446L263.738 435.707H257.404L257.733 435.406V441.021L257.404 440.72H263.256V441.923H257.404L257.733 441.582V447.557L257.404 447.256H264.023L263.629 447.557L264.023 445.191Z" fill="#8D90CF"/>
<path d="M294.073 448.48V447.617L296.243 447.196L295.958 447.557V435.446L296.331 435.827L294.073 435.446V434.584L297.821 434.484H300.386C302.037 434.484 303.286 434.798 304.133 435.426C304.981 436.055 305.405 436.964 305.405 438.153C305.405 439.249 305.025 440.145 304.265 440.84C303.52 441.535 302.38 441.956 300.846 442.103L300.824 441.903C301.394 441.956 301.854 442.077 302.205 442.264C302.57 442.438 302.877 442.678 303.125 442.986C303.374 443.28 303.615 443.647 303.848 444.088L305.69 447.497L305.142 447.156L306.983 447.617V448.48H304.287L302.27 444.529C301.993 443.955 301.723 443.514 301.46 443.206C301.211 442.885 300.897 442.658 300.517 442.524C300.152 442.391 299.626 442.324 298.939 442.324L297.427 442.344L297.756 442.063V447.557L297.471 447.196L300.013 447.617V448.48H294.073ZM297.756 441.582L297.427 441.141H299.509C300.809 441.141 301.81 440.9 302.512 440.419C303.213 439.924 303.564 439.203 303.564 438.254C303.564 437.425 303.279 436.796 302.709 436.369C302.139 435.928 301.291 435.707 300.166 435.707H297.427L297.756 435.406V441.582Z" fill="#8D90CF"/>
</svg>
